# xmcd CD database file
#
# Track frame offsets:
#	150
#	20115
#	56105
#	71940
#	87877
#	104195
#	118437
#	153552
#	178810
#	200027
#	212667
#	225932
#
# Disc length: 3206 seconds
#
# Revision: 0
# Processed by: cddbd v1.5.1PL0 Copyright (c) Steve Scherf et al.
# Submitted via: CDex 1.51
#
DISCID=bc0c840c
DTITLE=Ottilie Patterson - Ottilie Patterson With Chris Barber
DYEAR=1900
DGENRE=Jazz
TTITLE0=Doctor Jazz
TTITLE1=Baby Won't You Please Come Home
TTITLE2=Georgia Grind
TTITLE3=There'll Be A Hot Time In Old Town Tonight
TTITLE4=Won't You Come Home Bill Bailey
TTITLE5=Darling Nelly Gray
TTITLE6=Stumblin' Block
TTITLE7=Easy, Easy, Easy
TTITLE8=I'm A Salty Dog
TTITLE9=When Things Go Wrong With You
TTITLE10=Bad Luck Blues
TTITLE11=Star Of The Country Down
EXTD=
EXTT0=
EXTT1=
EXTT2=
EXTT3=
EXTT4=
EXTT5=
EXTT6=
EXTT7=
EXTT8=
EXTT9=
EXTT10=
EXTT11=
PLAYORDER=
